<svg width="68" height="68" viewBox="0 0 68 68" fill="none" xmlns="http://www.w3.org/2000/svg">
<path d="M58.6787 10.3518C58.6787 10.3518 64.1825 8.20559 63.7221 13.4175C63.5705 15.5638 62.1949 23.0763 61.1239 31.2009L57.4548 55.2701C57.4548 55.2701 57.1488 58.7962 54.3962 59.4096C51.645 60.0216 47.5168 57.2633 46.7518 56.6499C46.1398 56.1895 35.2853 49.2903 31.4632 45.9187C30.3922 44.9978 29.1682 43.159 31.6162 41.0128L47.6698 25.6816C49.5044 23.8399 51.339 19.5474 43.6947 24.7608L22.2888 39.3241C22.2888 39.3241 19.8423 40.8583 15.2565 39.4785L5.31717 36.4114C5.31717 36.4114 1.648 34.1122 7.91675 31.8129C23.2068 24.6078 42.0131 17.2496 58.6773 10.3504" fill="white"/>
</svg>
